<svg width="24" height="24" viewBox="0 0 24 24" fill="none" xmlns="http://www.w3.org/2000/svg">
<path fill-rule="evenodd" clip-rule="evenodd" d="M12 20.9586C11.448 20.9586 11.0014 20.512 11.0014 19.9611C11.0014 19.4112 11.448 18.9625 12 18.9625C12.5499 18.9625 12.9975 19.4112 12.9975 19.9611C12.9975 20.512 12.5499 20.9586 12 20.9586ZM11.4772 8.48336C11.4783 8.19537 11.712 7.96164 12 7.96164C12.2869 7.96164 12.5217 8.19537 12.5207 8.48336V16.4677C12.5217 16.7557 12.2869 16.9894 12 16.9894C11.712 16.9894 11.4783 16.7557 11.4772 16.4677V8.48336ZM23.9442 23.2208L12.4664 0.265292C12.289 -0.0884308 11.7099 -0.0884308 11.5336 0.265292L0.0558407 23.2208C-0.117369 23.5651 0.133055 23.9762 0.522255 23.9762H23.4777C23.8669 23.9762 24.1174 23.5651 23.9442 23.2208Z" fill="black"/>
</svg>
