<svg width="24" height="24" viewBox="0 0 24 24" fill="none" xmlns="http://www.w3.org/2000/svg">
<path fill-rule="evenodd" clip-rule="evenodd" d="M12.0198 18.2625H12.001C11.4333 18.2625 10.9669 17.8075 10.9575 17.2377C10.9481 16.6616 11.4062 16.1858 11.9833 16.1764C11.9896 16.1764 11.9958 16.1753 12.001 16.1753C12.5698 16.1753 13.0352 16.6314 13.0446 17.2011C13.055 17.7772 12.5948 18.252 12.0198 18.2625ZM11.4782 6.26141C11.4793 5.97339 11.713 5.73963 12.001 5.73963C12.2891 5.73963 12.5228 5.97339 12.5218 6.26141V13.5664C12.5228 13.8544 12.2891 14.0882 12.001 14.0882C11.713 14.0882 11.4793 13.8544 11.4782 13.5664V6.26141ZM12 0C5.37334 0 0 5.37229 0 12C0 18.6277 5.37334 24 12 24C18.6277 24 24 18.6277 24 12C24 5.37229 18.6277 0 12 0Z" fill="black"/>
</svg>
