<svg width="24" height="25" viewBox="0 0 24 25" fill="none" xmlns="http://www.w3.org/2000/svg">
<path fill-rule="evenodd" clip-rule="evenodd" d="M15.1304 19.83H8.86957C8.58156 19.83 8.34783 19.5963 8.34783 19.3083C8.34783 19.0203 8.58156 18.7865 8.86957 18.7865H11.4772V10.4387H9.91304C9.62504 10.4387 9.3913 10.2049 9.3913 9.91695C9.3913 9.62895 9.62504 9.39521 9.91304 9.39521H12C12.287 9.39521 12.5217 9.62895 12.5207 9.91695V18.7865H15.1304C15.4174 18.7865 15.6522 19.0203 15.6522 19.3083C15.6522 19.5963 15.4174 19.83 15.1304 19.83ZM11.4783 5.2213C12.0532 5.2213 12.5217 5.68878 12.5217 6.26478C12.5217 6.84182 12.0532 7.30825 11.4783 7.30825C10.9012 7.30825 10.4348 6.84182 10.4348 6.26478C10.4348 5.68878 10.9012 5.2213 11.4783 5.2213ZM12 0.00390625C5.38226 0.00390625 0 5.38617 0 12.0039C0 18.6216 5.38226 24.0039 12 24.0039C18.6167 24.0039 24 18.6216 24 12.0039C24 5.38617 18.6167 0.00390625 12 0.00390625Z" fill="black"/>
</svg>
