<svg width="24" height="24" viewBox="0 0 24 24" fill="none" xmlns="http://www.w3.org/2000/svg">
<path fill-rule="evenodd" clip-rule="evenodd" d="M21 2.08333H2.99998C2.44698 2.08333 1.99998 1.61771 1.99998 1.04167C1.99998 0.466667 2.44698 0 2.99998 0H21C21.552 0 22 0.466667 22 1.04167C22 1.61771 21.552 2.08333 21 2.08333ZM1 21.875H23C23.552 21.875 24 22.3417 24 22.9167C24 23.4927 23.552 23.9583 23 23.9583H1C0.447 23.9583 0 23.4927 0 22.9167C0 22.3417 0.447 21.875 1 21.875ZM17.5 5.20833C18.052 5.20833 18.5 4.74271 18.5 4.16667C18.5 3.59167 18.052 3.125 17.5 3.125H6.49997C5.94697 3.125 5.49997 3.59167 5.49997 4.16667C5.49997 4.74271 5.94697 5.20833 6.49997 5.20833H17.5ZM4.00001 8.33333C3.44701 8.33333 3.00001 7.86771 3.00001 7.29167C3.00001 6.71667 3.44701 6.25 4.00001 6.25H20C20.552 6.25 21 6.71667 21 7.29167C21 7.86771 20.552 8.33333 20 8.33333H4.00001ZM1 11.4583H23C23.552 11.4583 24 10.9927 24 10.4167C24 9.84167 23.552 9.375 23 9.375H1C0.447 9.375 0 9.84167 0 10.4167C0 10.9927 0.447 11.4583 1 11.4583ZM4.99997 12.5H19C19.552 12.5 20 12.9667 20 13.5417C20 14.1177 19.552 14.5833 19 14.5833H4.99997C4.44697 14.5833 3.99997 14.1177 3.99997 13.5417C3.99997 12.9667 4.44697 12.5 4.99997 12.5ZM16.5 17.7083C17.052 17.7083 17.5 17.2427 17.5 16.6667C17.5 16.0917 17.052 15.625 16.5 15.625H7.5C6.947 15.625 6.5 16.0917 6.5 16.6667C6.5 17.2427 6.947 17.7083 7.5 17.7083H16.5ZM4.99997 20.8333C4.44697 20.8333 3.99997 20.3677 3.99997 19.7917C3.99997 19.2167 4.44697 18.75 4.99997 18.75H19C19.552 18.75 20 19.2167 20 19.7917C20 20.3677 19.552 20.8333 19 20.8333H4.99997Z" fill="black"/>
</svg>
