<svg width="24" height="24" viewBox="0 0 24 24" fill="none" xmlns="http://www.w3.org/2000/svg">
<path fill-rule="evenodd" clip-rule="evenodd" d="M22.7601 2.08696H4.27091C3.70288 2.08696 3.24374 1.62052 3.24374 1.04348C3.24374 0.467478 3.70288 0 4.27091 0H22.7601C23.3271 0 23.7872 0.467478 23.7872 1.04348C23.7872 1.62052 23.3271 2.08696 22.7601 2.08696ZM0.991133 21.913H22.7961C23.3432 21.913 23.7872 22.3805 23.7872 22.9565C23.7872 23.5336 23.3432 24 22.7961 24H0.991133C0.443037 24 0 23.5336 0 22.9565C0 22.3805 0.443037 21.913 0.991133 21.913ZM22.7437 3.13043H7.09156C6.51452 3.13043 6.04809 3.59791 6.04809 4.17391C6.04809 4.75096 6.51452 5.21739 7.09156 5.21739H22.7437C23.3197 5.21739 23.7872 4.75096 23.7872 4.17391C23.7872 3.59791 23.3197 3.13043 22.7437 3.13043ZM4.27091 6.26087H22.7601C23.3271 6.26087 23.7872 6.72835 23.7872 7.30435C23.7872 7.88139 23.3271 8.34783 22.7601 8.34783H4.27091C3.70288 8.34783 3.24374 7.88139 3.24374 7.30435C3.24374 6.72835 3.70288 6.26087 4.27091 6.26087ZM22.7961 9.3913H0.991133C0.443037 9.3913 0 9.85878 0 10.4348C0 11.0118 0.443037 11.4783 0.991133 11.4783H22.7961C23.3432 11.4783 23.7872 11.0118 23.7872 10.4348C23.7872 9.85878 23.3432 9.3913 22.7961 9.3913ZM4.27091 12.5217H22.7601C23.3271 12.5217 23.7872 12.9892 23.7872 13.5652C23.7872 14.1423 23.3271 14.6087 22.7601 14.6087H4.27091C3.70288 14.6087 3.24374 14.1423 3.24374 13.5652C3.24374 12.9892 3.70288 12.5217 4.27091 12.5217ZM22.7437 15.6522H7.09156C6.51452 15.6522 6.04809 16.1197 6.04809 16.6957C6.04809 17.2727 6.51452 17.7391 7.09156 17.7391H22.7437C23.3197 17.7391 23.7872 17.2727 23.7872 16.6957C23.7872 16.1197 23.3197 15.6522 22.7437 15.6522ZM4.27091 18.7826H22.7601C23.3271 18.7826 23.7872 19.2501 23.7872 19.8261C23.7872 20.4031 23.3271 20.8696 22.7601 20.8696H4.27091C3.70288 20.8696 3.24374 20.4031 3.24374 19.8261C3.24374 19.2501 3.70288 18.7826 4.27091 18.7826Z" fill="black"/>
</svg>
