<svg width="24" height="24" viewBox="0 0 24 24" fill="none" xmlns="http://www.w3.org/2000/svg">
<path fill-rule="evenodd" clip-rule="evenodd" d="M20 2.07124H1C0.447 2.07124 0 1.60832 0 1.03562C0 0.463959 0.447 0 1 0H20C20.552 0 21 0.463959 21 1.03562C21 1.60832 20.552 2.07124 20 2.07124ZM1 21.7481H23C23.552 21.7481 24 22.212 24 22.7837C24 23.3564 23.552 23.8193 23 23.8193H1C0.447 23.8193 0 23.3564 0 22.7837C0 22.212 0.447 21.7481 1 21.7481ZM1 5.17811H16C16.552 5.17811 17 4.71519 17 4.14249C17 3.57083 16.552 3.10687 16 3.10687H1C0.447 3.10687 0 3.57083 0 4.14249C0 4.71519 0.447 5.17811 1 5.17811ZM18 8.28498H1C0.447 8.28498 0 7.82206 0 7.24936C0 6.6777 0.447 6.21374 1 6.21374H18C18.552 6.21374 19 6.6777 19 7.24936C19 7.82206 18.552 8.28498 18 8.28498ZM1 11.3918H23C23.552 11.3918 24 10.9289 24 10.3562C24 9.78456 23.552 9.3206 23 9.3206H1C0.447 9.3206 0 9.78456 0 10.3562C0 10.9289 0.447 11.3918 1 11.3918ZM19 14.4987H1C0.447 14.4987 0 14.0358 0 13.4631C0 12.8914 0.447 12.4275 1 12.4275H19C19.552 12.4275 20 12.8914 20 13.4631C20 14.0358 19.552 14.4987 19 14.4987ZM1 17.6056H16C16.552 17.6056 17 17.1427 17 16.57C17 15.9983 16.552 15.5343 16 15.5343H1C0.447 15.5343 0 15.9983 0 16.57C0 17.1427 0.447 17.6056 1 17.6056ZM19 20.7124H1C0.447 20.7124 0 20.2495 0 19.6768C0 19.1052 0.447 18.6412 1 18.6412H19C19.552 18.6412 20 19.1052 20 19.6768C20 20.2495 19.552 20.7124 19 20.7124Z" fill="black"/>
</svg>
