<svg width="16" height="16" viewBox="0 0 16 16" fill="none" xmlns="http://www.w3.org/2000/svg">
<path d="M5.33336 8.66667H10.8954C11.008 8.66706 11.1132 8.61054 11.1751 8.5164C11.237 8.42226 11.2471 8.30324 11.202 8.2L10.2354 5.95133C10.1163 5.78129 9.9248 5.67642 9.71739 5.66766C9.50999 5.65891 9.31034 5.74727 9.17736 5.90667L8.17003 7.2C8.11403 7.27235 8.01019 7.28603 7.93736 7.23067L6.88469 6.42867C6.60597 6.26173 6.2475 6.32002 6.03603 6.56667L5.05069 8.158C4.98718 8.26069 4.98417 8.3897 5.04282 8.49525C5.10147 8.60079 5.21261 8.66637 5.33336 8.66667Z" fill="black"/>
<path d="M6.06872 4.66667C6.62101 4.66667 7.06872 4.21895 7.06872 3.66667C7.06872 3.11438 6.62101 2.66667 6.06872 2.66667C5.51644 2.66667 5.06873 3.11438 5.06873 3.66667C5.06873 4.21895 5.51644 4.66667 6.06872 4.66667Z" fill="black"/>
<path d="M11.3333 9.66667H4.66667C4.29848 9.66667 4 9.96514 4 10.3333C4 10.7015 4.29848 11 4.66667 11H11.3333C11.7015 11 12 10.7015 12 10.3333C12 9.96514 11.7015 9.66667 11.3333 9.66667Z" fill="black"/>
<path d="M11.3333 11.6667H4.66667C4.29848 11.6667 4 11.9651 4 12.3333C4 12.7015 4.29848 13 4.66667 13H11.3333C11.7015 13 12 12.7015 12 12.3333C12 11.9651 11.7015 11.6667 11.3333 11.6667Z" fill="black"/>
<path d="M14.4714 3.80467L10.862 0.195333C10.737 0.0703004 10.5675 0 10.3907 0H2.66671C1.93033 0 1.33337 0.596954 1.33337 1.33333V14.6667C1.33337 15.403 1.93033 16 2.66671 16H13.3334C14.0698 16 14.6667 15.403 14.6667 14.6667V4.276C14.6667 4.0992 14.5964 3.92966 14.4714 3.80467ZM13.3334 14.3333C13.3334 14.5174 13.1841 14.6667 13 14.6667H3.00004C2.81595 14.6667 2.66671 14.5174 2.66671 14.3333V1.66667C2.66671 1.48257 2.81595 1.33333 3.00004 1.33333H9.97671C10.0649 1.33333 10.1496 1.36835 10.212 1.43067L13.236 4.45467C13.2984 4.51714 13.3334 4.60177 13.3334 4.69V14.3333Z" fill="black"/>
</svg>
