<svg width="16" height="16" viewBox="0 0 16 16" fill="none" xmlns="http://www.w3.org/2000/svg">
<path d="M1.13201 13.5385H3.36813C3.41054 13.5386 3.45126 13.5225 3.48126 13.4936C3.51125 13.4647 3.52802 13.4255 3.52785 13.3846V12.1538C3.52785 11.814 3.24181 11.5385 2.88896 11.5385H1.61118C1.25833 11.5385 0.972291 11.814 0.972291 12.1538V13.3846C0.972122 13.4255 0.988895 13.4647 1.01889 13.4936C1.04888 13.5225 1.0896 13.5386 1.13201 13.5385Z" fill="black"/>
<path d="M5.44443 8.46154C5.09158 8.46154 4.80554 8.73705 4.80554 9.07692V13.3846C4.80537 13.4255 4.82215 13.4647 4.85214 13.4936C4.88213 13.5225 4.92285 13.5386 4.96527 13.5385H7.20138C7.24379 13.5386 7.28452 13.5225 7.31451 13.4936C7.3445 13.4647 7.36127 13.4255 7.3611 13.3846V9.07692C7.3611 8.73705 7.07506 8.46154 6.72221 8.46154H5.44443Z" fill="black"/>
<path d="M9.27781 9.69231C8.92496 9.69231 8.63892 9.96782 8.63892 10.3077V13.3846C8.63875 13.4255 8.65552 13.4647 8.68551 13.4936C8.7155 13.5225 8.75623 13.5386 8.79864 13.5385H11.0348C11.0772 13.5386 11.1179 13.5225 11.1479 13.4936C11.1779 13.4647 11.1946 13.4255 11.1945 13.3846V10.3077C11.1945 9.96782 10.9084 9.69231 10.5556 9.69231H9.27781Z" fill="black"/>
<path d="M13.1112 5.38461C12.7583 5.38461 12.4723 5.66013 12.4723 6V13.3846C12.4721 13.4255 12.4889 13.4647 12.5189 13.4936C12.5489 13.5225 12.5896 13.5386 12.632 13.5385H14.8681C14.9105 13.5386 14.9513 13.5225 14.9813 13.4936C15.0112 13.4647 15.028 13.4255 15.0278 13.3846V6C15.0278 5.66013 14.7418 5.38461 14.389 5.38461H13.1112Z" fill="black"/>
<path d="M13.7501 0.461537C13.3595 0.461537 12.9905 0.633705 12.7482 0.928726C12.5059 1.22375 12.417 1.6093 12.5068 1.97538C12.5182 2.02342 12.5054 2.07382 12.4723 2.11138L10.3908 4.44985C10.351 4.49411 10.2888 4.51313 10.2298 4.49908C10.1275 4.47374 10.0223 4.46112 9.91674 4.46154C9.57676 4.46193 9.25095 4.59282 9.01144 4.82523C8.96881 4.86679 8.90524 4.88114 8.84788 4.86215L7.45638 4.416C7.39935 4.39762 7.35771 4.35015 7.34841 4.29292C7.25398 3.65434 6.66372 3.19431 5.99564 3.23861C5.32755 3.28291 4.80832 3.81651 4.80563 4.46154C4.80555 4.55772 4.81734 4.65357 4.84077 4.74708C4.8547 4.80401 4.8339 4.86364 4.7871 4.90092L2.93432 6.39015C2.8873 6.42721 2.82277 6.43599 2.76694 6.41292C2.24964 6.19254 1.64347 6.32597 1.27692 6.74091C0.910358 7.15586 0.870649 7.75355 1.17931 8.21011C1.48796 8.66668 2.07153 8.87344 2.61377 8.71837C3.15601 8.56329 3.52787 8.08329 3.52785 7.53846C3.52779 7.44252 3.51621 7.34691 3.49335 7.25354C3.47927 7.19672 3.49981 7.13712 3.54638 7.09969L5.39916 5.61046C5.44573 5.57297 5.51035 5.56414 5.56591 5.58769C6.04959 5.79263 6.61434 5.68965 6.9868 5.32861C7.02978 5.28722 7.09342 5.2729 7.15099 5.29169L8.54185 5.73723C8.59855 5.75592 8.63986 5.80329 8.64919 5.86031C8.73435 6.50729 9.32868 6.97797 10.0042 6.93338C10.6797 6.8888 11.2018 6.34443 11.1945 5.69231C11.1947 5.52708 11.1599 5.36354 11.0923 5.21169C11.0687 5.1577 11.0788 5.0955 11.1185 5.05108L13.0633 2.86523C13.1087 2.81428 13.1832 2.79759 13.2473 2.824C13.724 3.02032 14.2767 2.91967 14.6461 2.56924C15.0156 2.21881 15.1285 1.68808 14.932 1.22591C14.7355 0.763729 14.2686 0.461742 13.7501 0.461537Z" fill="black"/>
<path d="M0.972263 15.5385H15.0278C15.3807 15.5385 15.6667 15.2629 15.6667 14.9231C15.6667 14.5832 15.3807 14.3077 15.0278 14.3077H0.972263C0.619414 14.3077 0.333374 14.5832 0.333374 14.9231C0.333374 15.2629 0.619414 15.5385 0.972263 15.5385Z" fill="black"/>
</svg>
