<svg width="24" height="24" viewBox="0 0 24 24" fill="none" xmlns="http://www.w3.org/2000/svg">
<path fill-rule="evenodd" clip-rule="evenodd" d="M20 2H23.5C23.776 2 24 2.224 24 2.5V7H0V2.5C0 2.224 0.225 2 0.5 2H4V0.5C4 0.224 4.225 0 4.5 0H7.5C7.776 0 8 0.224 8 0.5V2H16V0.5C16 0.224 16.225 0 16.5 0H19.5C19.776 0 20 0.224 20 0.5V2ZM7.1465 13.1465C6.9515 13.3415 6.9515 13.6585 7.1465 13.8535C7.3415 14.0485 7.6585 14.0485 7.8535 13.8535L9.0005 12.7075V18.9995H7.5005C7.2245 18.9995 7.0005 19.2235 7.0005 19.4995C7.0005 19.7765 7.2245 19.9995 7.5005 19.9995H11.5005C11.7765 19.9995 12.0005 19.7765 12.0005 19.4995C12.0005 19.2235 11.7765 18.9995 11.5005 18.9995H10.0005V11.4995C10.0005 11.2985 9.8785 11.1155 9.6915 11.0385C9.5035 10.9585 9.2895 11.0025 9.1465 11.1465L7.1465 13.1465ZM12.0005 10.9995C11.7245 10.9995 11.5005 11.2235 11.5005 11.4995V12.4995C11.5005 12.7765 11.7245 12.9995 12.0005 12.9995C12.2765 12.9995 12.5005 12.7765 12.5005 12.4995V11.9995H16.2795L15.1545 14.9995H13.5005C13.2245 14.9995 13.0005 15.2235 13.0005 15.4995C13.0005 15.7765 13.2245 15.9995 13.5005 15.9995H14.7795L13.5315 19.3245C13.4345 19.5825 13.5645 19.8715 13.8235 19.9685C14.0825 20.0655 14.3705 19.9355 14.4675 19.6765L15.8465 15.9995H16.5005C16.7765 15.9995 17.0005 15.7765 17.0005 15.4995C17.0005 15.2235 16.7765 14.9995 16.5005 14.9995H16.2215L17.4685 11.6765C17.5255 11.5215 17.5035 11.3495 17.4115 11.2145C17.3185 11.0805 17.1645 10.9995 17.0005 10.9995H12.0005ZM0.5005 23.9995C0.2245 23.9995 0.0005 23.7765 0.0005 23.4995V7.9995H24.0005V23.4995C24.0005 23.7765 23.7765 23.9995 23.5005 23.9995H0.5005Z" fill="black"/>
</svg>
