<svg width="24" height="24" viewBox="0 0 24 24" fill="none" xmlns="http://www.w3.org/2000/svg">
<path d="M8 10.5H7C6.44772 10.5 6 10.9477 6 11.5C6 12.0523 6.44772 12.5 7 12.5H8C8.55228 12.5 9 12.0523 9 11.5C9 10.9477 8.55228 10.5 8 10.5Z" fill="black"/>
<path d="M13 10.5H12C11.4477 10.5 11 10.9477 11 11.5C11 12.0523 11.4477 12.5 12 12.5H13C13.5523 12.5 14 12.0523 14 11.5C14 10.9477 13.5523 10.5 13 10.5Z" fill="black"/>
<path d="M18 10.5H17C16.4477 10.5 16 10.9477 16 11.5C16 12.0523 16.4477 12.5 17 12.5H18C18.5523 12.5 19 12.0523 19 11.5C19 10.9477 18.5523 10.5 18 10.5Z" fill="black"/>
<path d="M8 14.5H7C6.44772 14.5 6 14.9477 6 15.5C6 16.0523 6.44772 16.5 7 16.5H8C8.55228 16.5 9 16.0523 9 15.5C9 14.9477 8.55228 14.5 8 14.5Z" fill="black"/>
<path d="M13 14.5H12C11.4477 14.5 11 14.9477 11 15.5C11 16.0523 11.4477 16.5 12 16.5H13C13.5523 16.5 14 16.0523 14 15.5C14 14.9477 13.5523 14.5 13 14.5Z" fill="black"/>
<path d="M18 14.5H17C16.4477 14.5 16 14.9477 16 15.5C16 16.0523 16.4477 16.5 17 16.5H18C18.5523 16.5 19 16.0523 19 15.5C19 14.9477 18.5523 14.5 18 14.5Z" fill="black"/>
<path d="M8 18.5H7C6.44772 18.5 6 18.9477 6 19.5C6 20.0523 6.44772 20.5 7 20.5H8C8.55228 20.5 9 20.0523 9 19.5C9 18.9477 8.55228 18.5 8 18.5Z" fill="black"/>
<path d="M13 18.5H12C11.4477 18.5 11 18.9477 11 19.5C11 20.0523 11.4477 20.5 12 20.5H13C13.5523 20.5 14 20.0523 14 19.5C14 18.9477 13.5523 18.5 13 18.5Z" fill="black"/>
<path d="M18 18.5H17C16.4477 18.5 16 18.9477 16 19.5C16 20.0523 16.4477 20.5 17 20.5H18C18.5523 20.5 19 20.0523 19 19.5C19 18.9477 18.5523 18.5 18 18.5Z" fill="black"/>
<path d="M22 3H19.25C19.1119 3 19 2.88807 19 2.75V1C19 0.447715 18.5523 0 18 0C17.4477 0 17 0.447715 17 1V5.75C17 6.16421 16.6642 6.5 16.25 6.5C15.8358 6.5 15.5 6.16421 15.5 5.75V3.5C15.5 3.22386 15.2761 3 15 3H8.75C8.61232 3 8.50055 2.88868 8.5 2.751V1C8.5 0.447715 8.05228 0 7.5 0C6.94772 0 6.5 0.447715 6.5 1V5.75C6.5 6.16421 6.16421 6.5 5.75 6.5C5.33579 6.5 5 6.16421 5 5.75V3.5C5 3.22386 4.77614 3 4.5 3H3C1.89543 3 1 3.89543 1 5V22C1 23.1046 1.89543 24 3 24H22C23.1046 24 24 23.1046 24 22V5C24 3.89543 23.1046 3 22 3ZM22 21.5C22 21.7761 21.7761 22 21.5 22H3.5C3.22386 22 3 21.7761 3 21.5V9.5C3 9.22386 3.22386 9 3.5 9H21.5C21.7761 9 22 9.22386 22 9.5V21.5Z" fill="black"/>
</svg>
