<svg width="24" height="24" viewBox="0 0 24 24" fill="none" xmlns="http://www.w3.org/2000/svg">
<path d="M20 12C20.0008 12.6632 19.716 13.2947 19.2182 13.733L8.04109 23.5668C7.27077 24.2133 6.12531 24.1265 5.46118 23.3713C4.79705 22.6162 4.85717 21.469 5.59659 20.7874L15.3706 12.1884C15.4249 12.1409 15.456 12.0722 15.456 12C15.456 11.9278 15.4249 11.8591 15.3706 11.8116L5.59659 3.21261C4.85717 2.53104 4.79705 1.38379 5.46118 0.628659C6.12531 -0.126472 7.27077 -0.213273 8.04109 0.433156L19.2142 10.264C19.7132 10.703 19.9994 11.3354 20 12Z" fill="black"/>
</svg>
