<svg width="24" height="24" viewBox="0 0 24 24" fill="none" xmlns="http://www.w3.org/2000/svg">
<path d="M12 4.5C12.6632 4.49918 13.2947 4.78403 13.733 5.28176L23.5668 16.4589C24.2133 17.2292 24.1265 18.3747 23.3713 19.0388C22.6162 19.703 21.469 19.6428 20.7874 18.9034L12.1884 9.12942C12.1409 9.07514 12.0722 9.04401 12 9.04401C11.9278 9.04401 11.8591 9.07514 11.8116 9.12942L3.21261 18.9034C2.53104 19.6428 1.38379 19.703 0.628659 19.0388C-0.126472 18.3747 -0.213273 17.2292 0.433156 16.4589L10.264 5.28577C10.703 4.78684 11.3354 4.50063 12 4.5Z" fill="black"/>
</svg>
