<svg width="24" height="24" viewBox="0 0 24 24" fill="none" xmlns="http://www.w3.org/2000/svg">
<path d="M12 19.5C11.3368 19.5008 10.7053 19.216 10.267 18.7182L0.433155 7.54109C-0.213274 6.77076 -0.126471 5.6253 0.62866 4.96117C1.38379 4.29704 2.53104 4.35717 3.21261 5.09659L11.8116 14.8706C11.8591 14.9249 11.9278 14.956 12 14.956C12.0722 14.956 12.1409 14.9249 12.1884 14.8706L20.7874 5.09659C21.469 4.35717 22.6162 4.29704 23.3713 4.96117C24.1265 5.6253 24.2133 6.77076 23.5668 7.54109L13.736 18.7142C13.297 19.2132 12.6646 19.4994 12 19.5Z" fill="black"/>
</svg>
