<svg width="24" height="24" viewBox="0 0 24 24" fill="none" xmlns="http://www.w3.org/2000/svg">
<path fill-rule="evenodd" clip-rule="evenodd" d="M0.500305 -0.000305176H23.5003C23.7763 -0.000305176 24.0003 0.223695 24.0003 0.499695V23.4997C24.0003 23.7767 23.7763 23.9997 23.5003 23.9997H0.500305C0.224305 23.9997 0.000305176 23.7767 0.000305176 23.4997V0.499695C0.000305176 0.223695 0.224305 -0.000305176 0.500305 -0.000305176ZM19.1133 4.12127L21.8842 7.02368C22.0386 7.18538 22.0386 7.44826 21.8842 7.60996L9.21729 20.8781C9.06291 21.0406 8.81195 21.0406 8.65757 20.8781L3.11579 15.0733C2.96141 14.9116 2.96141 14.6487 3.11579 14.487L5.88668 11.5846C6.04106 11.4229 6.29202 11.4229 6.4464 11.5846L8.93703 14.1934L18.5536 4.12127C18.708 3.95957 18.959 3.95957 19.1133 4.12127Z" fill="black"/>
</svg>
