<svg width="24" height="24" viewBox="0 0 24 24" fill="none" xmlns="http://www.w3.org/2000/svg">
<path d="M12 0C5.37258 0 0 5.37258 0 12C0 18.6274 5.37258 24 12 24C18.6274 24 24 18.6274 24 12C23.9928 5.37555 18.6244 0.00716485 12 0ZM17.207 13.707L12.707 18.207C12.3165 18.5974 11.6835 18.5974 11.293 18.207L6.793 13.707C6.41403 13.3146 6.41945 12.6909 6.80518 12.3052C7.19092 11.9194 7.81462 11.914 8.207 12.293L10.573 14.659C10.6448 14.731 10.7529 14.7523 10.8467 14.713C10.9404 14.6737 11.001 14.5816 11 14.48V6C11 5.44772 11.4477 5 12 5C12.5523 5 13 5.44772 13 6V14.48C12.9998 14.5813 13.0607 14.6726 13.1543 14.7114C13.2478 14.7502 13.3555 14.7287 13.427 14.657L15.793 12.291C16.1854 11.912 16.8091 11.9174 17.1948 12.3032C17.5806 12.6889 17.586 13.3126 17.207 13.705V13.707Z" fill="black"/>
</svg>
