<svg width="24" height="24" viewBox="0 0 24 24" fill="none" xmlns="http://www.w3.org/2000/svg">
<path fill-rule="evenodd" clip-rule="evenodd" d="M24 11.5704C24 10.4195 23.063 9.48348 21.913 9.48348H14.2341C14.5336 8.25635 15.1304 5.60487 15.1304 3.97287C15.1304 1.92974 13.9096 1 12.7763 1C11.7391 1 10.9565 1.73043 10.9565 2.70087C10.9565 7.31304 7.10609 10.527 3.65217 10.527H0.521739C0.233739 10.527 0 10.7607 0 11.0487V20.44C0 20.728 0.233739 20.9617 0.521739 20.9617C5.304 20.9617 6.93913 21.664 8.25391 22.2285C9.23687 22.6511 10.1635 23.0487 12 23.0487H18.7826C19.9325 23.0487 20.8696 22.1127 20.8696 20.9617C20.8696 20.5318 20.7391 20.1332 20.5158 19.8014C21.3287 19.5155 21.913 18.7402 21.913 17.8313C21.913 17.4014 21.7826 17.0028 21.5593 16.671C22.3722 16.385 22.9565 15.6097 22.9565 14.7009C22.9565 14.271 22.8261 13.8723 22.6028 13.5405C23.4157 13.2546 24 12.4793 24 11.5704Z" fill="black"/>
</svg>
