<svg width="24" height="24" viewBox="0 0 24 24" fill="none" xmlns="http://www.w3.org/2000/svg">
<path fill-rule="evenodd" clip-rule="evenodd" d="M12.499 15.86V18.5C12.499 18.775 12.274 19 11.999 19C11.723 19 11.499 18.775 11.499 18.5V15.86C11.201 15.687 10.999 15.368 10.999 15C10.999 14.448 11.447 14 11.999 14C12.55 14 12.999 14.448 12.999 15C12.999 15.368 12.796 15.687 12.499 15.86ZM6.999 6C6.999 3.243 9.241 1 11.999 1C14.756 1 16.999 3.243 16.999 6V9H6.999V6ZM20.499 9H17.999V6C17.999 2.691 15.307 0 11.999 0C8.69 0 5.999 2.691 5.999 6V9H3.5C3.224 9 3 9.223 3 9.5V23.5C3 23.776 3.224 24 3.5 24H20.499C20.775 24 20.999 23.776 20.999 23.5V9.5C20.999 9.223 20.775 9 20.499 9Z" fill="black"/>
</svg>
