<svg width="24" height="24" viewBox="0 0 24 24" fill="none" xmlns="http://www.w3.org/2000/svg">
<path fill-rule="evenodd" clip-rule="evenodd" d="M23.0147 4.36L12.002 13.12L1.03398 4.33382C1.36889 4.12545 1.76053 4 2.18271 4H21.8191C22.2609 4 22.6711 4.13418 23.0147 4.36ZM12.3229 14.2445L23.7425 5.1736C23.9018 5.47578 24 5.81615 24 6.1816V18.1816C23.9989 19.3838 23.0204 20.3634 21.8171 20.3634H2.18291C0.979636 20.3634 0.00109091 19.3838 0 18.1816V6.1816C0.00109091 5.7976 0.108 5.44306 0.283636 5.12996L11.6749 14.2434C11.8691 14.3907 12.1287 14.3907 12.3229 14.2445Z" fill="black"/>
</svg>
