<svg width="24" height="24" viewBox="0 0 24 24" fill="none" xmlns="http://www.w3.org/2000/svg">
<path fill-rule="evenodd" clip-rule="evenodd" d="M21 15.5C21 16.879 22.122 18 23.5 18C23.776 18 24 18.224 24 18.5C24 18.776 23.776 19 23.5 19H0.5C0.224 19 0 18.776 0 18.5C0 18.224 0.224 18 0.5 18C1.878 18 3 16.879 3 15.5V11C3 7.358 5.239 4.049 8.6 2.675C8.976 1.131 10.388 0 12 0C13.637 0 15.022 1.108 15.397 2.675C18.76 4.049 21 7.359 21 11V15.5ZM8.5 20.5C8.5 20.224 8.724 20 9 20H15C15.276 20 15.5 20.224 15.5 20.5C15.5 22.43 13.93 24 12 24C10.07 24 8.5 22.43 8.5 20.5Z" fill="black"/>
</svg>
