<svg width="24" height="24" viewBox="0 0 24 24" fill="none" xmlns="http://www.w3.org/2000/svg">
<path fill-rule="evenodd" clip-rule="evenodd" d="M21.1303 0.734765L23.2658 2.87126C24.2441 3.85267 24.2441 5.44061 23.2658 6.42202L21.8414 7.84937C21.645 8.04571 21.3267 8.04571 21.1303 7.84937L16.1511 2.87126C15.9548 2.67486 15.9548 2.3565 16.1511 2.1601L17.5775 0.734765C18.5591 -0.244922 20.1486 -0.244922 21.1303 0.734765ZM15.0849 3.9395C14.9907 3.8445 14.8626 3.79093 14.7288 3.79063C14.5952 3.79066 14.4671 3.84386 14.3727 3.9385L3.3865 14.9278C3.19016 15.1242 3.19016 15.4425 3.3865 15.6389L8.36361 20.616C8.56001 20.8124 8.87837 20.8124 9.07477 20.616L20.056 9.63481C20.2517 9.43853 20.2517 9.12094 20.056 8.92466L15.0849 3.9395ZM2.37358 16.8289C2.24478 16.7005 2.0567 16.6517 1.8817 16.7011C1.70643 16.7503 1.57139 16.8903 1.52864 17.0673L0.0137813 23.3812C-0.0268711 23.5513 0.0237914 23.7304 0.147564 23.854C0.272067 23.9762 0.450403 24.0263 0.620328 23.9867L6.92922 22.4779C7.10637 22.4355 7.24674 22.3007 7.29621 22.1254C7.34567 21.95 7.29648 21.7617 7.16761 21.633L2.37358 16.8289Z" fill="black"/>
</svg>
