<svg width="24" height="24" viewBox="0 0 24 24" fill="none" xmlns="http://www.w3.org/2000/svg">
<path fill-rule="evenodd" clip-rule="evenodd" d="M19.9997 7.99985C19.9997 3.58166 16.418 0 11.9999 0C7.58166 0 4 3.58166 4 7.99985C4 11.6339 9.41217 20.7463 11.3332 23.6422C11.4814 23.8657 11.7317 24 11.9999 24C12.268 24 12.5183 23.8657 12.6665 23.6422C14.5875 20.7463 19.9997 11.6339 19.9997 7.99985ZM15.9998 7.99985C15.9998 10.2089 14.2089 11.9998 11.9999 11.9998C9.79075 11.9998 7.99993 10.2089 7.99993 7.99985C7.99993 5.79075 9.79075 3.99993 11.9999 3.99993C14.2089 3.99993 15.9998 5.79075 15.9998 7.99985Z" fill="black"/>
</svg>
