<svg width="24" height="24" viewBox="0 0 24 24" fill="none" xmlns="http://www.w3.org/2000/svg">
<path d="M8.34783 22.4348C8.34783 23.2992 9.0486 24 9.91304 24H14.087C14.9514 24 15.6522 23.2992 15.6522 22.4348V15.913C15.6522 15.769 15.769 15.6522 15.913 15.6522H22.4348C23.2992 15.6522 24 14.9514 24 14.087V9.91304C24 9.0486 23.2992 8.34783 22.4348 8.34783H15.913C15.769 8.34783 15.6522 8.23103 15.6522 8.08696V1.56522C15.6522 0.700772 14.9514 0 14.087 0H9.91304C9.0486 0 8.34783 0.700772 8.34783 1.56522V8.08696C8.34783 8.23103 8.23103 8.34783 8.08696 8.34783H1.56522C0.700772 8.34783 0 9.0486 0 9.91304V14.087C0 14.9514 0.700772 15.6522 1.56522 15.6522H8.08696C8.23103 15.6522 8.34783 15.769 8.34783 15.913V22.4348Z" fill="black"/>
</svg>
