<svg width="24" height="24" viewBox="0 0 24 24" fill="none" xmlns="http://www.w3.org/2000/svg">
<path fill-rule="evenodd" clip-rule="evenodd" d="M18.5 4.5L15.5 1.5V4.5H18.5ZM3 10.5C3 10.225 3.224 10 3.5 10C3.775 10 4 10.225 4 10.5C4 10.775 3.775 11 3.5 11C3.224 11 3 10.775 3 10.5ZM16.5 17H7.5C7.224 17 7 16.776 7 16.5C7 16.224 7.224 16 7.5 16H16.5C16.775 16 17 16.224 17 16.5C17 16.776 16.775 17 16.5 17ZM16.5 19H7.5C7.224 19 7 18.776 7 18.5C7 18.224 7.224 18 7.5 18H16.5C16.775 18 17 18.224 17 18.5C17 18.776 16.775 19 16.5 19ZM16.5 21H7.5C7.224 21 7 20.776 7 20.5C7 20.224 7.224 20 7.5 20H16.5C16.775 20 17 20.224 17 20.5C17 20.776 16.775 21 16.5 21ZM18 22H6V15H18V22ZM2 10.5C2 11.327 2.673 12 3.5 12C4.326 12 5 11.327 5 10.5C5 9.673 4.326 9 3.5 9C2.673 9 2 9.673 2 10.5ZM2.5 7H21.5C22.878 7 24 8.122 24 9.5V15.5C24 16.878 22.878 18 21.5 18H19V22.5C19 22.776 18.775 23 18.5 23H5.5C5.224 23 5 22.776 5 22.5V18H2.5C1.121 18 0 16.878 0 15.5V9.5C0 8.122 1.121 7 2.5 7ZM5.5 6H18.5C18.775 6 19 5.776 19 5.5V4.5C19 4.367 18.947 4.24 18.853 4.146L15.853 1.146C15.76 1.053 15.633 1 15.5 1H5.5C5.224 1 5 1.224 5 1.5V5.5C5 5.776 5.224 6 5.5 6Z" fill="black"/>
</svg>
