<svg width="24" height="24" viewBox="0 0 24 24" fill="none" xmlns="http://www.w3.org/2000/svg">
<path fill-rule="evenodd" clip-rule="evenodd" d="M12 16C9.794 16 8 14.205 8 12C8 9.795 9.794 8 12 8C14.206 8 16 9.795 16 12C16 14.205 14.206 16 12 16ZM23.5 10H20.645C20.445 9.21 20.191 8.333 19.867 7.668L21.899 5.636C22.095 5.441 22.095 5.125 21.899 4.929L19.07 2.102C18.875 1.905 18.559 1.905 18.363 2.102L16.331 4.133C15.665 3.809 14.789 3.555 14 3.356V0.5C14 0.224 13.776 0 13.5 0H10.5C10.224 0 10 0.224 10 0.5V3.356C9.21 3.555 8.333 3.809 7.669 4.133L5.636 2.102C5.44 1.905 5.124 1.905 4.929 2.102L2.1 4.929C1.905 5.124 1.905 5.44 2.1 5.636L4.133 7.669C3.811 8.332 3.555 9.209 3.355 10H0.5C0.224 10 0 10.224 0 10.5V13.5C0 13.776 0.224 14 0.5 14H3.355C3.555 14.791 3.811 15.668 4.133 16.332L2.1 18.365C1.904 18.56 1.904 18.876 2.1 19.071L4.929 21.899C5.117 22.087 5.449 22.087 5.636 21.899L7.669 19.867C8.331 20.19 9.209 20.444 10 20.646V23.5C10 23.776 10.224 24 10.5 24H13.5C13.776 24 14 23.776 14 23.5V20.646C14.79 20.444 15.668 20.19 16.331 19.867L18.364 21.899C18.56 22.095 18.876 22.095 19.071 21.899L21.899 19.071C22.095 18.876 22.095 18.56 21.899 18.365L19.867 16.332C20.19 15.668 20.445 14.791 20.645 14H23.5C23.776 14 24 13.776 24 13.5V10.5C24 10.224 23.776 10 23.5 10Z" fill="black"/>
</svg>
