<svg width="24" height="24" viewBox="0 0 24 24" fill="none" xmlns="http://www.w3.org/2000/svg">
<path fill-rule="evenodd" clip-rule="evenodd" d="M23.9727 8.33643C23.9037 8.13443 23.7127 8.00043 23.4997 8.00043H15.3537L12.4717 0.334427C12.4017 0.133427 12.2127 0.000427246 11.9997 0.000427246C11.7867 0.000427246 11.5987 0.133427 11.5287 0.334427L8.6467 8.00043H0.499695C0.286695 8.00043 0.0966954 8.13443 0.0276954 8.33643C-0.0433046 8.53843 0.0236954 8.76143 0.191695 8.89343L6.9137 14.6764L4.0257 23.3414C3.9557 23.5484 4.0297 23.7764 4.2047 23.9044C4.3807 24.0324 4.6187 24.0324 4.7947 23.9034L11.9997 18.6204L19.2047 23.9034C19.3807 24.0324 19.6187 24.0324 19.7947 23.9044C19.9707 23.7764 20.0437 23.5484 19.9747 23.3414L17.0857 14.6764L23.8087 8.89343C23.9767 8.76143 24.0427 8.53843 23.9727 8.33643Z" fill="black"/>
</svg>
