<svg width="24" height="24" viewBox="0 0 24 24" fill="none" xmlns="http://www.w3.org/2000/svg">
<path fill-rule="evenodd" clip-rule="evenodd" d="M16.5 18.5C16.5 18.776 16.276 19 16 19C15.724 19 15.5 18.776 15.5 18.5V7.5C15.5 7.225 15.724 7 16 7C16.276 7 16.5 7.225 16.5 7.5V18.5ZM12.5 18.5C12.5 18.776 12.276 19 12 19C11.724 19 11.5 18.776 11.5 18.5V7.5C11.5 7.225 11.724 7 12 7C12.276 7 12.5 7.225 12.5 7.5V18.5ZM8.5 3H15.5V1H8.5V3ZM8.5 18.5C8.5 18.776 8.276 19 8 19C7.724 19 7.5 18.776 7.5 18.5V7.5C7.5 7.225 7.724 7 8 7C8.276 7 8.5 7.225 8.5 7.5V18.5ZM23.5 3H16.5V0.5C16.5 0.225 16.276 0 16 0H8C7.724 0 7.5 0.225 7.5 0.5V3H1.5C1.224 3 1 3.225 1 3.5C1 3.776 1.224 4 1.5 4H3.5V23.5C3.5 23.776 3.724 24 4 24H20C20.276 24 20.5 23.776 20.5 23.5V4H23.5C23.776 4 24 3.776 24 3.5C24 3.225 23.776 3 23.5 3Z" fill="black"/>
</svg>
