<svg width="24" height="24" viewBox="0 0 24 24" fill="none" xmlns="http://www.w3.org/2000/svg">
<path fill-rule="evenodd" clip-rule="evenodd" d="M1.5 5H14.5C15.327 5 16 5.672 16 6.5V17.5C16 18.326 15.327 19 14.5 18.999H1.5C0.673 19 0 18.326 0 17.5V6.5C0 5.672 0.673 5 1.5 5ZM17.2764 9.0517L23.2764 6.0517C23.6094 5.8857 24.0004 6.1277 24.0004 6.4997V17.4997C24.0004 17.8687 23.6114 18.1137 23.2764 17.9477L17.2764 14.9477C17.1074 14.8617 17.0004 14.6887 17.0004 14.4997V9.4997C17.0004 9.3097 17.1074 9.1367 17.2764 9.0517Z" fill="black"/>
</svg>
