<svg width="24" height="24" viewBox="0 0 24 24" fill="none" xmlns="http://www.w3.org/2000/svg">
<path fill-rule="evenodd" clip-rule="evenodd" d="M0.5 1H5.5C5.775 1 6 1.224 6 1.5V6.5C6 6.776 5.775 7 5.5 7H0.5C0.224 7 0 6.776 0 6.5V1.5C0 1.224 0.224 1 0.5 1ZM8.5 1H23.5C23.775 1 24 1.224 24 1.5V6.5C24 6.776 23.775 7 23.5 7H8.5C8.224 7 8 6.776 8 6.5V1.5C8 1.224 8.224 1 8.5 1ZM8.5 9H23.5C23.775 9 24 9.224 24 9.5V14.5C24 14.776 23.775 15 23.5 15H8.5C8.224 15 8 14.776 8 14.5V9.5C8 9.224 8.224 9 8.5 9ZM23.5 17H8.5C8.224 17 8 17.224 8 17.5V22.5C8 22.776 8.224 23 8.5 23H23.5C23.775 23 24 22.776 24 22.5V17.5C24 17.224 23.775 17 23.5 17ZM5.5 9H0.5C0.224 9 0 9.224 0 9.5V14.5C0 14.776 0.224 15 0.5 15H5.5C5.775 15 6 14.776 6 14.5V9.5C6 9.224 5.775 9 5.5 9ZM0 17.5C0 17.224 0.224 17 0.5 17H5.5C5.5 17 6 17.224 6 17.5V22.5C6 22.776 5.775 23 5.5 23H0.5C0.224 23 0 22.776 0 22.5V17.5Z" fill="black"/>
</svg>
