<svg width="24" height="24" viewBox="0 0 24 24" fill="none" xmlns="http://www.w3.org/2000/svg">
<path fill-rule="evenodd" clip-rule="evenodd" d="M15.1304 0H8.86957C8.58156 0 8.34783 0.233739 8.34783 0.521739V6.78261C8.34783 7.07061 8.58156 7.30435 8.86957 7.30435H15.1304C15.4174 7.30435 15.6522 7.07061 15.6522 6.78261V0.521739C15.6522 0.233739 15.4174 0 15.1304 0ZM23.4783 0H17.2174C16.9294 0 16.6957 0.233739 16.6957 0.521739V6.78261C16.6957 7.07061 16.9294 7.30435 17.2174 7.30435H23.4783C23.7652 7.30435 24 7.07061 24 6.78261V0.521739C24 0.233739 23.7652 0 23.4783 0ZM8.86957 8.34783H15.1304C15.4174 8.34783 15.6522 8.58156 15.6522 8.86957V15.1304C15.6522 15.4184 15.4174 15.6522 15.1304 15.6522H8.86957C8.58156 15.6522 8.34783 15.4184 8.34783 15.1304V8.86957C8.34783 8.58156 8.58156 8.34783 8.86957 8.34783ZM6.78261 8.34783H0.521739C0.233739 8.34783 0 8.58156 0 8.86957V15.1304C0 15.4184 0.233739 15.6522 0.521739 15.6522H6.78261C7.06957 15.6522 7.30435 15.4184 7.30435 15.1304V8.86957C7.30435 8.58156 7.06957 8.34783 6.78261 8.34783ZM17.2174 8.34783H23.4783C23.7652 8.34783 24 8.58156 24 8.86957V15.1304C24 15.4184 23.7652 15.6522 23.4783 15.6522H17.2174C16.9294 15.6522 16.6957 15.4184 16.6957 15.1304V8.86957C16.6957 8.58156 16.9294 8.34783 17.2174 8.34783ZM15.1304 16.6957H8.86957C8.58156 16.6957 8.34783 16.9294 8.34783 17.2174V23.4783C8.34783 23.7663 8.58156 24 8.86957 24H15.1304C15.4174 24 15.6522 23.7663 15.6522 23.4783V17.2174C15.6522 16.9294 15.4174 16.6957 15.1304 16.6957ZM0.521739 16.6957H6.78261C7.06957 16.6957 7.30435 16.9294 7.30435 17.2174V23.4783C7.30435 23.7663 7.06957 24 6.78261 24H0.521739C0.233739 24 0 23.7663 0 23.4783V17.2174C0 16.9294 0.233739 16.6957 0.521739 16.6957ZM23.4783 16.6957H17.2174C16.9294 16.6957 16.6957 16.9294 16.6957 17.2174V23.4783C16.6957 23.7663 16.9294 24 17.2174 24H23.4783C23.7652 24 24 23.7663 24 23.4783V17.2174C24 16.9294 23.7652 16.6957 23.4783 16.6957ZM0.521739 0H6.78261C7.06957 0 7.30435 0.233739 7.30435 0.521739V6.78261C7.30435 7.07061 7.06957 7.30435 6.78261 7.30435H0.521739C0.233739 7.30435 0 7.07061 0 6.78261V0.521739C0 0.233739 0.233739 0 0.521739 0Z" fill="black"/>
</svg>
