<svg width="24" height="24" viewBox="0 0 24 24" fill="none" xmlns="http://www.w3.org/2000/svg">
<path d="M23.5253 5.05983C24.1582 4.42676 24.1582 3.40057 23.5253 2.76751L21.233 0.475193C20.929 0.170943 20.5165 0 20.0863 0C19.6562 0 19.2437 0.170943 18.9396 0.475193L12.1913 7.22461C12.0855 7.32985 11.9145 7.32985 11.8087 7.22461L5.06037 0.475193C4.75631 0.170943 4.34381 0 3.91367 0C3.48353 0 3.07102 0.170943 2.76697 0.475193L0.474653 2.76751C-0.158218 3.40057 -0.158218 4.42676 0.474653 5.05983L7.22407 11.8092C7.32873 11.9153 7.32873 12.0858 7.22407 12.1918L0.474653 18.9413C-0.158218 19.5743 -0.158218 20.6005 0.474653 21.2336L2.76697 23.5259C3.07102 23.8301 3.48353 24.0011 3.91367 24.0011C4.34381 24.0011 4.75631 23.8301 5.06037 23.5259L11.8087 16.7765C11.9145 16.6712 12.0855 16.6712 12.1913 16.7765L18.9396 23.5259C19.2437 23.8301 19.6562 24.0011 20.0863 24.0011C20.5165 24.0011 20.929 23.8301 21.233 23.5259L23.5253 21.2336C24.1582 20.6005 24.1582 19.5743 23.5253 18.9413L16.7759 12.1918C16.6713 12.0858 16.6713 11.9153 16.7759 11.8092L23.5253 5.05983Z" fill="black"/>
</svg>
