<svg width="24" height="24" viewBox="0 0 24 24" fill="none" xmlns="http://www.w3.org/2000/svg">
<path fill-rule="evenodd" clip-rule="evenodd" d="M12 13.0832L1.30757 23.7757C1.00845 24.0748 0.523469 24.0748 0.224344 23.7757C-0.0747813 23.4765 -0.0747813 22.9916 0.224344 22.6924L10.9168 12L0.224344 1.30757C-0.0747813 1.00845 -0.0747813 0.523469 0.224344 0.224344C0.523469 -0.0747813 1.00845 -0.0747813 1.30757 0.224344L12 10.9168L22.6924 0.224344C22.9916 -0.0747813 23.4765 -0.0747813 23.7757 0.224344C24.0748 0.523469 24.0748 1.00845 23.7757 1.30757L13.0832 12L23.7757 22.6924C24.0748 22.9916 24.0748 23.4765 23.7757 23.7757C23.4765 24.0748 22.9916 24.0748 22.6924 23.7757L12 13.0832Z" fill="black"/>
</svg>
